<?xml version="1.0" encoding="UTF-8"?><svg id="Layer_1" xmlns="http://www.w3.org/2000/svg" xmlns:xlink="http://www.w3.org/1999/xlink" viewBox="0 0 1154.06 1153.81"><defs><style>.cls-1{fill:none;}.cls-2{fill:url(#linear-gradient);}.cls-3{clip-path:url(#clippath);}.cls-4,.cls-5{fill:#fff;}.cls-6,.cls-7{fill:#1e1e1c;}.cls-8{clip-path:url(#clippath-1);}.cls-9{clip-path:url(#clippath-4);}.cls-10{clip-path:url(#clippath-3);}.cls-11{clip-path:url(#clippath-2);}.cls-12{clip-path:url(#clippath-7);}.cls-13{clip-path:url(#clippath-8);}.cls-14{clip-path:url(#clippath-6);}.cls-15{clip-path:url(#clippath-5);}.cls-16{clip-path:url(#clippath-9);}.cls-17{clip-path:url(#clippath-20);}.cls-18{clip-path:url(#clippath-21);}.cls-19{clip-path:url(#clippath-22);}.cls-20{clip-path:url(#clippath-14);}.cls-21{clip-path:url(#clippath-13);}.cls-22{clip-path:url(#clippath-12);}.cls-23{clip-path:url(#clippath-10);}.cls-24{clip-path:url(#clippath-15);}.cls-25{clip-path:url(#clippath-17);}.cls-26{clip-path:url(#clippath-16);}.cls-27{clip-path:url(#clippath-19);}.cls-28{clip-path:url(#clippath-11);}.cls-29{clip-path:url(#clippath-18);}.cls-30{fill:url(#radial-gradient-2);}.cls-31{fill:url(#linear-gradient-8);}.cls-32{fill:url(#linear-gradient-9);}.cls-33{fill:url(#linear-gradient-3);}.cls-34{fill:url(#linear-gradient-4);}.cls-35{fill:url(#linear-gradient-2);}.cls-36{fill:url(#linear-gradient-6);}.cls-37{fill:url(#linear-gradient-7);}.cls-38{fill:url(#linear-gradient-5);}.cls-39{fill:url(#radial-gradient);}.cls-7,.cls-5{fill-rule:evenodd;}.cls-40{fill:url(#linear-gradient-14);}.cls-41{fill:url(#linear-gradient-15);}.cls-42{fill:url(#linear-gradient-16);}.cls-43{fill:url(#linear-gradient-17);}.cls-44{fill:url(#linear-gradient-13);}.cls-45{fill:url(#linear-gradient-12);}.cls-46{fill:url(#linear-gradient-10);}.cls-47{fill:url(#linear-gradient-11);}</style><clipPath id="clippath"><path class="cls-1" d="M167.45,576.94c0,226.14,183.33,409.46,409.47,409.46s409.45-183.32,409.45-409.46-183.32-409.46-409.45-409.46S167.45,350.81,167.45,576.94"/></clipPath><radialGradient id="radial-gradient" cx="280.72" cy="971.57" fx="280.72" fy="971.57" r="9.98" gradientTransform="translate(-21432.48 75805.8) scale(77.66 -77.66)" gradientUnits="userSpaceOnUse"><stop offset="0" stop-color="#90c144"/><stop offset="1" stop-color="#06642e"/></radialGradient><clipPath id="clippath-1"><path class="cls-1" d="M364.38,892.11c20.11,13.43,41.43,24.98,63.39,34.14,45.1-20.12,99.94-31.71,159.06-31.71,56.08,0,107.88,10.38,151.77,28.66,22.54-10.36,43.87-22.55,63.37-36.55-53.02-35.36-129.81-57.3-215.14-57.3-89.59,0-169.44,24.37-222.46,62.77m-76.79-67.64c12.19,14.01,24.98,26.18,38.4,38.4,59.12-42.66,154.17-70.09,260.85-70.09s192.61,24.98,252.93,63.98c13.4-12.19,26.23-25.59,37.78-40.22-57.87-51.2-166.38-85.93-290.71-85.93s-243.19,38.39-299.24,93.86m-44.49-62.18c6.08,10.98,13.4,21.95,20.72,32.32,56.67-59.11,180.38-99.95,323.01-99.95s254.16,37.16,314.49,90.8c7.32-10.37,14.02-21.94,20.11-32.9-60.93-57.29-188.32-96.93-334.6-96.93-154.8,0-287.69,43.88-343.73,106.66m-32.92-74.95c4.88,14.61,10.35,29.24,17.05,43.88,60.96-62.17,199.3-106.04,359.6-106.04,151.77,0,284.02,39,349.22,95.67,6.11-14.62,11.58-29.25,15.87-44.49-67.07-57.9-205.41-98.14-365.09-98.14-169.44,0-315.1,45.13-376.65,109.12m-14.61-62.78c2.42,15.25,5.47,30.47,9.13,45.11,58.5-67.05,207.82-114.59,382.13-114.59,163.34,0,304.73,42.06,370.56,101.79,3.03-14.62,5.48-29.86,7.32-45.11-68.89-57.9-212.72-98.13-377.88-98.13-176.74,0-328.51,45.71-391.26,110.92m-3.68-67.05v13.11c0,9.42,.02,18.28,.63,27.13,69.46-60.34,220.01-102.4,394.32-102.4,162.74,0,305.35,36.55,379.71,90.82,.59-5.49,.59-10.98,.59-16.47,0-7.93-.59-16.45-.59-24.37-76.21-53.02-217.6-88.98-379.71-88.98-173.71,0-324.25,41.44-394.95,101.17m10.37-76.18c-4.27,17.07-7.33,34.13-8.54,52.4,74.36-56.06,223.08-94.44,393.12-94.44,158.48,0,298.65,32.89,377.27,82.88-1.83-17.06-5.49-34.14-9.74-50.59-83.5-43.27-217-71.32-367.53-71.32-160.89,0-302.93,32.31-384.58,81.07m20.7-63.39c-6.08,14.01-11.57,28.65-15.82,43.88,82.87-46.31,222.45-76.79,379.69-76.79,146.88,0,277.32,26.21,362.05,67.64-4.27-14-9.76-28.01-15.88-40.81-83.47-39.02-209.05-63.4-348.61-63.4-146.89,0-277.91,27.44-361.43,69.48m35.36-64.6c-9.75,14.02-18.29,28.66-26.21,44.48,84.1-39.6,210.89-64.59,352.28-64.59,134.08,0,255.38,22.55,339.49,58.51-7.94-15.24-17.07-29.26-26.21-43.28-82.89-28.63-192.6-46.91-313.28-46.91-127.38,0-242.57,20.1-326.06,51.79m63.38-72.54c-15.23,13.42-29.85,28.66-42.66,44.51,81.67-27.43,188.33-44.51,305.34-44.51,110.33,0,212.1,15.25,291.33,39.63-12.79-15.23-26.8-29.87-42.05-43.27-72.53-17.07-157.86-27.43-249.28-27.43-96.89,0-187.72,11.56-262.68,31.07m57.3-42.66c-8.54,5.5-17.07,10.98-25.6,17.08,68.27-15.25,147.5-23.18,230.98-23.18,78.02,0,151.77,7.33,216.98,20.12-12.8-9.14-26.19-17.05-40.23-24.37-51.81-17.07-112.14-27.44-176.75-27.44-76.8,0-148.08,14.01-205.38,37.79"/></clipPath><linearGradient id="linear-gradient" x1="278.67" y1="969.1" x2="288.65" y2="969.1" gradientTransform="translate(-21451.71 75832.22) scale(77.67 -77.67)" gradientUnits="userSpaceOnUse"><stop offset="0" stop-color="#cfde95"/><stop offset="1" stop-color="#0fa54d"/></linearGradient><clipPath id="clippath-2"><rect class="cls-1" x=".05" y=".08" width="1153.73" height="1153.73"/></clipPath><clipPath id="clippath-3"><path class="cls-1" d="M384.14,865.39s55.16,20.67,177.51-46.53c67.22-55.16,99.96-205.09,99.96-205.09l-12.07-60.33-20.68-31.02s-246.44,84.45-244.73,342.97"/></clipPath><linearGradient id="linear-gradient-2" x1="260.45" y1="975.35" x2="270.44" y2="975.35" gradientTransform="translate(26552.37 7795.48) rotate(-90) scale(26.69 -26.69)" gradientUnits="userSpaceOnUse"><stop offset="0" stop-color="#a1cf9d"/><stop offset="1" stop-color="#05652e"/></linearGradient><clipPath id="clippath-4"><path class="cls-1" d="M621.97,475.89c29.3,43.1,44.81,22.41,44.81,22.41,0,0,170.5-113.07,55.09-246.11-74.3,44.38-175.72,70.33-99.89,223.7"/></clipPath><linearGradient id="linear-gradient-3" x1="265.08" y1="963.13" x2="275.06" y2="963.13" gradientTransform="translate(21864.3 6313.51) rotate(-90) scale(21.98 -21.98)" xlink:href="#linear-gradient-2"/><clipPath id="clippath-5"><path class="cls-1" d="M295.47,562.79c-18.99,157.07,91.87,299.67,247.63,318.52,155.75,18.84,297.42-93.21,316.42-250.26,18.99-157.07-91.87-299.67-247.62-318.52-11.5-1.39-22.9-2.07-34.19-2.07-141.8,.01-264.65,106.85-282.25,252.33"/></clipPath><clipPath id="clippath-6"><rect class="cls-1" x=".05" y=".08" width="1153.73" height="1153.73"/></clipPath><clipPath id="clippath-7"><polygon class="cls-1" points="631.26 411.76 631.09 413.13 714.85 423.27 715.02 421.9 715.18 420.53 631.43 410.39 631.26 411.76"/></clipPath><linearGradient id="linear-gradient-4" x1="236.52" y1="946.17" x2="246.5" y2="946.17" gradientTransform="translate(6986.01 2028.17) rotate(-90) scale(6.67 -6.67)" gradientUnits="userSpaceOnUse"><stop offset="0" stop-color="#028338"/><stop offset=".48" stop-color="#fff"/><stop offset="1" stop-color="#028338"/></linearGradient><clipPath id="clippath-8"><polygon class="cls-1" points="634.69 383.41 634.53 384.78 718.29 394.92 718.45 393.54 718.62 392.16 634.85 382.03 634.69 383.41"/></clipPath><linearGradient id="linear-gradient-5" x1="239.5" y1="943.73" x2="249.48" y2="943.73" gradientTransform="translate(6973.01 2019.67) rotate(-90) scale(6.67 -6.67)" xlink:href="#linear-gradient-4"/><clipPath id="clippath-9"><polygon class="cls-1" points="638.12 355.05 637.95 356.42 721.72 366.55 721.89 365.18 722.05 363.8 638.28 353.67 638.12 355.05"/></clipPath><linearGradient id="linear-gradient-6" x1="242.48" y1="941.3" x2="252.47" y2="941.3" gradientTransform="translate(6959.98 2011.17) rotate(-90) scale(6.67 -6.67)" xlink:href="#linear-gradient-4"/><clipPath id="clippath-10"><polygon class="cls-1" points="641.56 326.68 641.39 328.06 725.14 338.19 725.31 336.81 725.48 335.45 641.72 325.32 641.56 326.68"/></clipPath><linearGradient id="linear-gradient-7" x1="245.47" y1="938.86" x2="255.45" y2="938.86" gradientTransform="translate(6946.59 2002.55) rotate(-90) scale(6.67 -6.67)" xlink:href="#linear-gradient-4"/><clipPath id="clippath-11"><polygon class="cls-1" points="572.45 586.94 572.32 588.03 638.92 596.09 639.05 594.99 639.18 593.92 572.59 585.85 572.45 586.94"/></clipPath><linearGradient id="linear-gradient-8" x1="207.5" y1="964.86" x2="217.48" y2="964.86" gradientTransform="translate(5724.09 1718.16) rotate(-90) scale(5.3 -5.3)" xlink:href="#linear-gradient-4"/><clipPath id="clippath-12"><polygon class="cls-1" points="407.63 806.62 407.5 807.71 510.44 820.16 510.58 819.06 510.71 817.97 407.76 805.51 407.63 806.62"/></clipPath><linearGradient id="linear-gradient-9" x1="215.49" y1="995.8" x2="225.47" y2="995.8" gradientTransform="translate(8051.65 2493.9) rotate(-90) scale(7.62 -7.62)" xlink:href="#linear-gradient-4"/><clipPath id="clippath-13"><polygon class="cls-1" points="548.33 608.6 548.19 609.69 639.02 620.68 639.15 619.59 639.28 618.49 548.45 607.5 548.33 608.6"/></clipPath><linearGradient id="linear-gradient-10" x1="221.25" y1="969.53" x2="231.23" y2="969.53" gradientTransform="translate(7236.39 2164.16) rotate(-90) scale(6.85 -6.85)" xlink:href="#linear-gradient-4"/><clipPath id="clippath-14"><polygon class="cls-1" points="517.78 632.54 517.65 633.64 635.73 647.93 635.86 646.83 635.99 645.74 517.91 631.46 517.78 632.54"/></clipPath><linearGradient id="linear-gradient-11" x1="231.02" y1="973.06" x2="241" y2="973.06" gradientTransform="translate(8936.62 2667.36) rotate(-90) scale(8.59 -8.59)" xlink:href="#linear-gradient-4"/><clipPath id="clippath-15"><polygon class="cls-1" points="493.28 657.24 493.16 658.33 635.46 675.53 635.59 674.45 635.72 673.35 493.42 656.14 493.28 657.24"/></clipPath><linearGradient id="linear-gradient-12" x1="236.52" y1="975.14" x2="246.5" y2="975.14" gradientTransform="translate(10450.05 3114.15) rotate(-90) scale(10.14 -10.14)" xlink:href="#linear-gradient-4"/><clipPath id="clippath-16"><polygon class="cls-1" points="462.74 681.17 462.62 682.27 617.01 700.95 617.16 699.86 617.28 698.76 462.88 680.09 462.74 681.17"/></clipPath><linearGradient id="linear-gradient-13" x1="238.67" y1="977.74" x2="248.66" y2="977.74" gradientTransform="translate(11207.23 3348.91) rotate(-90) scale(10.91 -10.91)" xlink:href="#linear-gradient-4"/><clipPath id="clippath-17"><polygon class="cls-1" points="441.28 706.23 441.15 707.33 613.73 728.21 613.86 727.11 613.99 726.02 441.42 705.13 441.28 706.23"/></clipPath><linearGradient id="linear-gradient-14" x1="241.11" y1="979.06" x2="251.09" y2="979.06" gradientTransform="translate(12345.49 3687.31) rotate(-90) scale(12.07 -12.07)" xlink:href="#linear-gradient-4"/><clipPath id="clippath-18"><polygon class="cls-1" points="424.29 732.94 424.15 734.03 596.73 754.91 596.86 753.82 597 752.72 424.42 731.84 424.29 732.94"/></clipPath><linearGradient id="linear-gradient-15" x1="240.11" y1="981.19" x2="250.09" y2="981.19" gradientTransform="translate(12354.17 3701.87) rotate(-90) scale(12.07 -12.07)" xlink:href="#linear-gradient-4"/><clipPath id="clippath-19"><polygon class="cls-1" points="410.47 757.79 410.35 758.89 564.75 777.56 564.88 776.47 565.02 775.38 410.61 756.69 410.47 757.79"/></clipPath><linearGradient id="linear-gradient-16" x1="235.64" y1="984.76" x2="245.63" y2="984.76" gradientTransform="translate(11232.04 3392.62) rotate(-90) scale(10.91 -10.91)" xlink:href="#linear-gradient-4"/><clipPath id="clippath-20"><polygon class="cls-1" points="407.54 782.02 407.4 783.1 546.67 799.96 546.81 798.87 546.94 797.77 407.67 780.93 407.54 782.02"/></clipPath><linearGradient id="linear-gradient-17" x1="230.45" y1="987.89" x2="240.43" y2="987.89" gradientTransform="translate(10300.7 3131.62) rotate(-90) scale(9.94 -9.94)" xlink:href="#linear-gradient-4"/><clipPath id="clippath-21"><path class="cls-1" d="M7.77,576.46C8.09,261.71,263.94,7.48,577.41,7.79c314.67,.32,568.98,256.11,568.66,569.64-.34,314.39-255.58,568.62-568.56,568.59h-1.08c-314.73-.07-568.99-256.1-568.66-569.57m-7.72,.27C0,894.92,258.01,1153.5,575.85,1153.81h.77c318.44-.1,576.89-257.89,577.16-575.92C1154.06,258.93,895.86,.16,577.26,.08,258.63,0,.1,258.29,.05,576.73"/></clipPath><radialGradient id="radial-gradient-2" cx="284.02" cy="967.74" fx="284.02" fy="967.74" r="9.98" gradientTransform="translate(-15837.8 56505.82) scale(57.79 -57.79)" xlink:href="#radial-gradient"/><clipPath id="clippath-22"><rect class="cls-1" x=".05" y=".08" width="1153.73" height="1153.73"/></clipPath></defs><path class="cls-4" d="M576.15,1148.51c316.79,0,573.6-256.81,573.6-573.6S892.94,1.3,576.15,1.3,2.54,258.11,2.54,574.91s256.81,573.6,573.6,573.6"/><g class="cls-3"><rect class="cls-39" x="167.45" y="167.48" width="818.92" height="818.92"/></g><g class="cls-8"><rect class="cls-2" x="191.89" y="200.35" width="775.25" height="725.9"/></g><g class="cls-11"><path class="cls-4" d="M862.12,563.8c-3.45-15.75-13.04-29.19-26.14-37.69,10.19,.51,19.7,3.54,27.96,8.49-7.6-9.92-18.45-17.25-30.97-20.34,2.41-2.8,5.09-5.38,8.02-7.67-5.91,1.01-11.43,3.17-16.3,6.27-.15-.02-.31-.02-.46-.04-1.13-3.64-2.74-7.07-4.72-10.26v0c-1.99,3.19-3.59,6.62-4.72,10.26-.16,.02-.31,.02-.46,.04-4.89-3.09-10.39-5.26-16.31-6.27,2.92,2.29,5.6,4.86,8.03,7.67-12.52,3.09-23.38,10.42-30.98,20.34,8.25-4.95,17.77-7.99,27.96-8.49-13.1,8.5-22.69,21.94-26.14,37.69,5.72-10.93,14.16-20.19,24.44-26.89-6.66,9.62-11.04,20.94-12.32,33.18-.26,2.49-.38,4.99-.38,7.53,0,3.13,.21,6.2,.59,9.21,1-6.24,2.68-12.23,4.98-17.92,3.01-7.5,7.12-14.45,12.09-20.67-1.53,5.38-2.52,11.01-2.91,16.79-.13,1.9-.21,3.8-.21,5.74,0,5.99,.65,11.82,1.85,17.44,.32,1.46,.67,2.88,1.06,4.31,.02,.09,.04,.18,.07,.27v-.3c0-.53-.04-1.05-.04-1.59,0-1.36,.05-2.7,.1-4.05,.36-9.38,1.92-18.46,4.58-27.05,1.1-3.55,2.39-7.02,3.84-10.4v15.78l-1.45-1.12,1.45,7.84v10.06l-1.44-1.11,1.44,6.71v10.06l-1.44-1.12,1.44,6.71v12.31l-2.39,1.12v1.11h14.53v-1.11l-2.37-1.12v-12.31l1.45-6.71-1.45,1.12v-10.06l1.45-6.71-1.45,1.11v-10.06l1.45-7.84-1.45,1.12v-15.78c1.46,3.38,2.74,6.85,3.83,10.4,2.66,8.59,4.22,17.67,4.58,27.05,.05,1.35,.1,2.7,.1,4.05,0,.54-.02,1.06-.03,1.59-.01,.11-.02,.19-.02,.3,.03-.09,.05-.18,.08-.27,.39-1.43,.75-2.85,1.06-4.31,1.21-5.62,1.86-11.45,1.86-17.44,0-1.94-.1-3.84-.23-5.74-.39-5.78-1.38-11.41-2.9-16.79,4.97,6.22,9.07,13.18,12.1,20.67,2.29,5.69,3.98,11.68,4.97,17.92,.38-3.01,.6-6.08,.6-9.21,0-2.54-.14-5.04-.39-7.53-1.29-12.24-5.66-23.56-12.32-33.18,10.28,6.7,18.73,15.96,24.44,26.89"/><path class="cls-4" d="M855.28,659.89c-5.91,4.43-8.94,2.11-11.76-2.84l4.36-4.29c2.24-2.21-.16-5.29-2.92-2.82l-5.33,4.38c-5.18-5.02-15.31-14.59-15.31-14.59,26.75-25.42,47.36-33.21,65.93-33.77-35.38-4.75-45.81,6.72-70.75,29.07-24.95-22.35-35.36-33.82-70.75-29.07,18.56,.56,39.19,8.34,65.92,33.77,0,0-10.13,9.57-15.3,14.59l-5.33-4.38c-2.77-2.47-5.16,.62-2.93,2.82l4.36,4.29c-2.81,4.95-5.84,7.28-11.75,2.84-4.51-5.27-16.5-2.11-8.9,5.94,5.09,4.6,19.37,5.54,26.07-3.44l3.51,3.45c2.71,3.43,8.1,3.06,2.92-2.86l-3.52-3.45c5.34-6.09,10.58-10.35,15.7-15.17,5.11,4.82,10.36,9.08,15.69,15.17l-3.51,3.45c-5.19,5.93,.22,6.3,2.91,2.86l3.52-3.45c6.71,8.98,20.98,8.05,26.07,3.44,7.61-8.05-4.4-11.21-8.9-5.94"/></g><g class="cls-10"><rect class="cls-35" x="306.8" y="475.94" width="430.44" height="456.6" transform="translate(-295.8 388.6) rotate(-32.35)"/></g><g class="cls-9"><rect class="cls-33" x="497.36" y="195" width="388.71" height="381.18" transform="translate(-98.97 429.94) rotate(-32.35)"/></g><g class="cls-15"><path class="cls-7" d="M438.45,950.17s-106.23-137.96,15-266.32c121.23-128.34,214.22-148.42,285.16-215.57,70.93-67.15,55.52-146.3-8.82-205.82,0,0,67.22,86.33,.67,169.49-66.56,83.16-181.07,115.63-279.04,203.22-97.97,87.6-115.95,217.1-12.97,315"/><path class="cls-7" d="M434.17,865.97s232-46.25,218.32-247.35c0,0,4.59-58.65-46.09-136.95-50.7-78.29-41.23-143.12,29.18-176.94,0,0-63.89,34.32-16.57,127.66,47.32,93.33,96.14,195.52,56.4,284.2-39.75,88.69-184.41,149.46-241.23,149.37"/></g><g class="cls-14"><path class="cls-5" d="M439.08,953.9s-110.08-137.81,10.43-269.99c120.49-132.15,214.33-154.16,284.96-223.43,70.65-69.27,53.62-149.15-12.6-208.29,0,0,69.63,86.24,3.69,171.65-65.92,85.4-181.34,120.35-279,210.81-97.66,90.47-113.56,221.94-7.49,319.26"/><path class="cls-5" d="M419.79,855.96s236.79-36.92,231.52-241.01c0,0,7.16-59.17-40.82-140.58-47.97-81.39-35.62-146.6,37.08-177.82,0,0-66.13,32.01-22.22,128.49,43.93,96.47,88.97,201.98,44.97,290.03-44,88.06-193.02,143.39-250.52,140.89"/><rect class="cls-4" x="692.81" y="210.88" width="18.2" height="18.2" transform="translate(-1.08 436.49) rotate(-34.52)"/><polygon class="cls-4" points="662.26 232.23 653.6 219.64 666.19 210.97 674.86 223.57 662.26 232.23"/><rect class="cls-4" x="680.01" y="199.59" width="10.52" height="10.52" transform="translate(4.57 424.41) rotate(-34.52)"/><polygon class="cls-4" points="677.57 189.92 673.49 184 679.41 179.92 683.49 185.85 677.57 189.92"/><path class="cls-5" d="M715.39,273.7c-2.07,17.1-17.61,29.28-34.7,27.21-17.1-2.08-29.29-17.61-27.21-34.7,2.07-17.1,17.6-29.29,34.7-27.21,17.09,2.07,29.28,17.61,27.21,34.7"/></g><g class="cls-12"><rect class="cls-34" x="634.17" y="388.89" width="77.94" height="55.88" transform="translate(-118.57 424.85) rotate(-32.35)"/></g><g class="cls-13"><rect class="cls-38" x="637.61" y="360.53" width="77.94" height="55.88" transform="translate(-102.86 422.29) rotate(-32.35)"/></g><g class="cls-16"><rect class="cls-36" x="641.03" y="332.17" width="77.93" height="55.87" transform="translate(-87.15 419.72) rotate(-32.35)"/></g><g class="cls-23"><rect class="cls-37" x="644.47" y="303.82" width="77.93" height="55.87" transform="translate(-71.45 417.16) rotate(-32.35)"/></g><g class="cls-28"><rect class="cls-31" x="574.77" y="568.76" width="61.97" height="44.43" transform="translate(-222.2 415.82) rotate(-32.35)"/></g><g class="cls-22"><rect class="cls-32" x="411.59" y="779.04" width="95.03" height="67.59" transform="translate(-363.67 371.79) rotate(-32.35)"/></g><g class="cls-21"><rect class="cls-46" x="551.73" y="584.15" width="84" height="59.87" transform="translate(-236.44 412.98) rotate(-32.35)"/></g><g class="cls-20"><rect class="cls-47" x="522.42" y="601.07" width="108.79" height="77.23" transform="translate(-252.76 407.9) rotate(-32.35)"/></g><g class="cls-24"><rect class="cls-45" x="499.04" y="619.51" width="130.81" height="92.66" transform="translate(-268.67 405.33) rotate(-32.35)"/></g><g class="cls-26"><rect class="cls-44" x="469.04" y="640.33" width="141.82" height="100.38" transform="translate(-285.67 396.06) rotate(-32.35)"/></g><g class="cls-25"><rect class="cls-40" x="448.39" y="660.68" width="158.36" height="111.97" transform="translate(-301.59 393.49) rotate(-32.35)"/></g><g class="cls-29"><rect class="cls-41" x="431.39" y="687.39" width="158.37" height="111.97" transform="translate(-318.51 388.55) rotate(-32.35)"/></g><g class="cls-27"><rect class="cls-42" x="416.77" y="716.93" width="141.84" height="100.39" transform="translate(-334.78 379.99) rotate(-32.35)"/></g><g class="cls-17"><rect class="cls-43" x="413.14" y="745.08" width="128.07" height="90.74" transform="translate(-348.88 377.98) rotate(-32.35)"/></g><g class="cls-18"><rect class="cls-30" width="1154.06" height="1153.81"/></g><g class="cls-19"><path class="cls-6" d="M89.62,504.7c5.04-20.2,10.01-40.11,15.1-60.49-6.5-2.13-13.3-4.5-20.18-6.56-3.07-.91-4.17-1.96-3.04-5.41,1.15-3.52,2.59-4.12,5.94-2.92,6.63,2.37,13.4,4.31,20.45,6.55,3.58-9.82,7.04-19.26,10.69-29.25-6.05-2.5-12.09-4.98-18.13-7.46-6.6-2.7-6.84-3.69-2.08-10.22,7.62,3.06,15.34,6.16,23.56,9.45,3.42-7.56,6.78-14.94,10.4-22.93-1.73-.98-3.45-2.01-5.23-2.95-7.8-4.17-15.61-8.32-23.42-12.48-6.83-3.62-6.92-4.2-1.4-10.52,2.73,1.42,5.56,2.87,8.38,4.34,2.69,1.41,5.39,2.81,8.46,4.42,3.95-7.39,7.82-14.59,11.66-21.8,6.34-11.88,8.04-12.42,19.72-6.24,1.4,.74,2.82,1.43,4.64,2.34,1.42-2.33,2.71-4.46,4.18-6.88-11.23-7.05-22.21-13.94-33.38-20.95,1.12-1.91,1.65-3.62,2.79-4.55,1.05-.85,3.25-1.63,4.13-1.1,10.48,6.3,20.91,12.7,31.13,19.4,5.15,3.38,5.21,7.12,1.81,13.39-13.86,25.58-28.4,50.82-39.05,78.01-14.29,36.51-24.97,73.97-30.57,112.82-1.29,9-4.48,11.35-13.37,9.86-4.92-.83-9.87-1.5-14.73-2.57-5.4-1.18-7.32-3.84-6.88-9.32,.29-3.68,.83-7.37,1.55-10.98,1.21-6.02,4.43-8.25,10.84-7.48,5.41,.66,10.77,1.64,16,2.45m47.07-137.03c4.85-9.13,9.53-17.97,14.41-27.15-3.55-1.86-6.59-3.43-9.88-5.15-4.9,9.2-9.54,17.94-14.37,27.01,3.32,1.79,6.37,3.42,9.84,5.29m-49.5,156.75c.58-3.89,1.06-7.15,1.62-10.92-5.99-.95-11.55-1.83-17.41-2.75-.58,3.82-1.07,7.08-1.64,10.83,5.9,.97,11.35,1.86,17.43,2.84"/><path class="cls-6" d="M908.87,225.77c10.05,10.08,19.91,19.97,29.84,29.94,2.75-2.99,5.09-5.53,8.03-8.72-7.12-6.98-14.58-14.24-22-21.57-5.45-5.38-5.42-5.41-.14-10.63,8.17-8.09,19.58-8.62,28.32-1.32,6.06,5.07,6.05,6.07,.42,10.6-5.11-2.63-9.76-5.55-14.81-7.35-1.9-.68-4.72,1.24-8.49,2.4,7.3,7.1,13.77,13.31,20.14,19.61,7.83,7.74,7.83,10.64,.1,18.29-1.58,1.57-3.39,2.9-5.11,4.36,6.1,6.96,11.61,13.25,17.53,19.99,10.13-8.27,20.14-16.46,30.5-24.92,1.95,2.34,3.55,4.25,5.58,6.69-10.22,8.42-20.11,16.58-30.4,25.06,1.59,2.12,3.08,4.1,4.84,6.44,4.31-3.14,8.41-6.2,12.58-9.16,6.6-4.71,10.28-4.15,15.09,2.23,1.65,2.19,3.31,4.35,4.87,6.61,3.74,5.42,3.22,9.2-2.01,13.34-4.27,3.37-8.71,6.53-13.34,9.98,1.32,1.93,2.47,3.59,3.83,5.6,1.41-.94,2.71-1.75,3.96-2.65,8.07-5.88,16.17-11.7,24.14-17.7,2.56-1.93,4.26-2.77,6.65,.49,2.3,3.14,1.37,4.56-1.37,6.5-8.27,5.85-16.38,11.95-24.56,17.93-8.96,6.56-11.88,5.82-18.57-2.85-13.83-17.97-27.5-36.11-42.24-53.33-10.65-12.44-22.93-23.5-34.47-35.17q-5.35-5.41,1.09-10.66m90.34,74.44c-2.37-3.2-4.42-6-6.61-8.97-4.81,3.58-9.3,6.92-14.17,10.55,2.27,3.03,4.32,5.79,6.6,8.82,4.82-3.54,9.2-6.76,14.18-10.4"/><path class="cls-6" d="M422.61,116.47c-2.06,.56-3.77,.95-5.43,1.5-3.05,1.01-5.62,1.97-6.83-2.7-1.11-4.29,1.17-4.9,4.23-5.58,17.23-3.86,34.44-7.77,51.64-11.67,.61-.14,1.2-.41,2.32-.8-.6-4.74-1.14-9.48-1.83-14.21-1.29-8.76,.84-11.69,9.66-13.02,2.39-.36,4.77-.71,7.17-.94,7.36-.72,9.98,1.19,11.27,8.55,.92,5.18,1.49,10.41,2.26,15.96,2.8-.18,5.14-.34,8.28-.54-.6-7.94-1.16-15.55-1.76-23.16-.35-4.33-.63-8.67-1.19-12.98-.39-2.99,1.28-3.64,3.62-3.78,2.13-.12,4.73-1.13,5.01,2.53,.97,12.51,2.19,24.99,2.84,37.52,.29,5.48-2.68,7.86-8.87,8.65-12.6,1.61-25.23,2.95-37.77,4.94-11.87,1.88-23.64,4.44-35.39,6.69-.48,3.8-.55,7.2-1.39,10.4-2.15,8.29-7.34,13.97-15.86,15.7-8.84,1.8-16.79-1.73-21.26-9.8-2.68-4.85-4.16-10.38-6.07-15.64-1.14-3.14,1.06-3.75,3.42-4.41,2.35-.65,4.19-1.34,5.13,2.04,1.24,4.46,2.61,8.98,4.66,13.11,2.85,5.76,8.72,7.66,14.77,5.49,5.54-1.99,8.32-6.99,7.35-13.84m54.76-20.03c3.82-.53,7.26-1,11.02-1.51-.81-5.95-1.56-11.46-2.38-17.44-3.89,.52-7.32,.97-11.04,1.46,.83,6.02,1.59,11.53,2.4,17.49"/><path class="cls-6" d="M687.14,105.92c19.78,5.85,38.83,11.48,58.26,17.23,3.84-10.52,7.85-21.17,11.57-31.92,1.15-3.31,2.29-4.72,6.14-3.29,3.8,1.4,3.33,3.28,2.24,6.21-3.97,10.66-7.78,21.39-11.8,32.52,2.71,1.04,5.02,1.92,7.74,2.95,4.37-10.96,8.76-21.45,12.71-32.11,1.44-3.88,3.12-4.52,6.69-2.79,2.41,1.16,3.02,2.34,2.01,4.83-4.43,10.85-8.61,21.81-13.14,32.63-2.58,6.17-6.16,7.71-12.36,5.29-29.42-11.46-59.56-20.3-90.62-26.02-6.31-1.16-8.75-4.5-7.82-10.57,.94-6.02,2.22-12.01,3.74-17.91,1.39-5.38,4.73-7.34,10.12-6.43,3.63,.62,7.27,1.34,10.85,2.25,5.64,1.44,7.66,4.29,6.83,10.29-.79,5.71-2.11,11.33-3.15,16.85m-16.3-20.83c-1.24,6.22-2.34,11.76-3.48,17.55,3.86,.75,7.1,1.38,10.8,2.11,1.22-5.92,2.35-11.47,3.56-17.41-3.67-.76-6.9-1.43-10.88-2.25"/><path class="cls-6" d="M1066.9,471.23c2.86-.66,6.23-1.43,9.96-2.28-2.55-11.04-5-21.65-7.45-32.28q-1.39-6.06,4.7-7.5c13.26-3.14,24.2,3.69,26.81,16.59,.76,3.75-.16,5.69-4.26,6.17-2.71,.32-3.59-.42-4.32-2.97-.94-3.32-1.97-7.04-4.19-9.44-1.99-2.16-5.65-2.75-8.58-4.03-.36,.43-.73,.85-1.09,1.28,1.84,8.23,3.68,16.46,5.54,24.69,.1,.47,.29,.93,.39,1.4,2.47,10.68,.99,13.1-9.62,15.59-3.75,.88-7.61,1.43-11.28,2.55-3.13,.95-4.27,.02-4.95-3.06-3.07-13.96-5.92-28.01-9.68-41.8-3.53-12.95-8.12-25.61-12.02-37.68-5.46-.27-9.95-.09-14.3-.82-5.22-.87-8.79-4.45-11.36-8.97-1.09-1.91-2.04-4.08,.88-5.13,2.24-.82,4.61-3.34,6.86,.71,3.91,7.05,6.85,7.89,14.22,4.98,8.67-3.41,17.34-6.88,25.99-10.33,7-2.78,7.08-2.75,8.98,5.74-7.74,3.11-15.57,6.26-22.48,9.04,7.1,25.88,14.1,51.47,21.25,77.57"/><path class="cls-6" d="M532.8,91.07h31.54c-.53-1.67-.93-3.11-1.44-4.51-1.16-3.17-2.49-6.29-3.53-9.49-2.97-9.13-.67-12.26,8.97-12.15,5.47,.06,10.95,.17,16.41,.5,6.79,.4,9.25,4,6.96,10.4-1.84,5.12-4.15,10.08-6.76,16.32,4.79,0,8.91,.27,12.96-.19,1.01-.12,2.42-2.56,2.49-3.98,.54-9.97,.77-19.95,1.11-29.92,.06-1.58,.22-3.14,.32-4.62,8.01-1.72,8.51-1.37,8.3,6.02-.29,10.14-.61,20.27-1.01,30.41-.34,8.56-3.02,11.09-11.66,10.98-21.25-.27-42.49-.58-63.74-.91-6.21-.1-9.05-2.52-9.47-8.53-.79-11.72-1.23-23.47-2.04-35.19-.25-3.63,1.38-4.27,4.49-4.41,3.18-.14,4.16,1.02,4.29,4.11,.47,11.71,1.18,23.41,1.81,35.17m34.54-17.13c2.47,6.26,4.77,12.11,7.47,18.94,3.35-6.74,6.26-12.55,9.44-18.94h-16.91Z"/><path class="cls-6" d="M855.15,177.21c3.11-4.8,5.92-9.29,8.88-13.66,4.1-6.04,7.74-6.83,13.83-3.05,4.1,2.54,8.11,5.21,12.15,7.87,.38,.25,.6,.73,1.19,1.48-1.26,2.01-2.59,4.11-4.2,6.69-5.05-3.13-9.76-6.05-14.99-9.29-3.11,4.84-6.12,9.52-9.51,14.8,4.65,2.99,9.09,6.06,13.73,8.76,2.88,1.69,2.72,3.22,1.08,5.76-1.68,2.6-2.94,3.66-6,1.61-25.51-17.15-51.81-32.97-79.72-45.95-3.09-1.44-2.89-3.12-1.58-5.71,1.31-2.57,2.52-3.8,5.53-2.13,4.6,2.57,9.41,4.76,14.53,7.32,2.67-5.25,5.21-10.23,7.96-15.63-4.57-2.44-9.03-4.82-13.95-7.45,1.27-2.54,2.38-4.76,3.83-7.68,5.53,2.94,10.9,5.41,15.83,8.55,3.88,2.48,3.75,6.51,1.97,10.35-2.43,5.23-5.04,10.37-7.67,15.73,7.53,4.13,14.82,8.14,22.54,12.39,3.45-5.51,6.85-10.9,10.22-16.31,4.07-6.55,4.67-6.61,10.64-.61-4.29,6.98-8.65,14.05-13.32,21.62,2.41,1.56,4.59,2.97,7.03,4.55"/><path class="cls-6" d="M208.18,204.98c.91-1.09,1.65-1.92,2.33-2.78,2.28-2.89,4.05-2.86,6.92-.11,8.23,7.93,16.89,15.4,25.54,23.2,12.92-10.67,27.47-22.71,42.2-34.88-.57-.81-1.17-1.73-1.82-2.61-6.75-9.07-10.47-9.71-19.34-2.59-3.19,2.57-4.99,2.38-7.22-.98-1.5-2.26-1.19-3.56,.68-5.3,10.46-9.76,22.52-8.92,31.36,2.27,1.08,1.36,2.19,2.68,3.48,4.27,2.56-1.87,4.84-3.54,7.51-5.49-4.94-7.19-9.73-14.14-14.44-20.99,5.64-6.19,6.37-6.18,10.47-.23,3.56,5.17,7.24,10.26,10.65,15.52,3.76,5.81,2.81,9.27-2.6,13.61-18.06,14.49-36.07,29.03-53.94,43.75-7.4,6.09-10.36,6.22-17.11-.75-7.17-7.4-14.31-14.82-21.45-22.25-1.09-1.14-2.09-2.37-3.22-3.67"/><path class="cls-6" d="M318.14,168.29c-6.25-10-12.14-19.57-18.22-29.03-1.8-2.78-2.78-4.63,.91-6.96,3.84-2.43,5.01-.21,6.63,2.4,5.94,9.54,11.93,19.04,18.17,28.97,3.21-2.02,6.14-3.86,9.38-5.9-6.97-11.14-13.75-22-20.49-32.77,5.21-6.07,6.54-6,10.48,.28,5.71,9.09,11.42,18.2,17.32,27.61,2.49-1.38,4.67-2.61,7.27-4.04-6.18-11.42-12.26-22.68-18.29-33.84,5.19-5.72,6.82-5.61,10.11,.46,4.97,9.18,10.01,18.34,14.88,27.57,3.71,7.04,2.67,10.23-4,14.33-9.85,6.07-19.58,12.34-29.51,18.31-2.14,1.29-4.19,5.06-7.5,.62-3.12-4.21-.67-5.9,2.85-8.01"/><path class="cls-6" d="M1072.5,506.01c.43,2.63,.73,4.51,1.13,7.06,5.38-.48,10.59-1.06,15.81-1.4,8.37-.54,10.9,1.77,11.65,10.26,.25,2.88,.78,5.76,.86,8.64,.15,5.02-2.14,8.13-6.99,8.89-6.19,.97-12.45,1.68-18.71,2.04-5.55,.33-8.28-2.09-9.1-7.76-.93-6.36-1.8-12.77-2.14-19.17-.27-5.16-2.01-7.46-7.58-7.77-7.5-.41-12.85-4.75-15.48-11.95-.77-2.1-2.46-4.99,1.04-6.02,2.71-.79,6.09-2.43,7.22,2.99,1.3,6.23,5.52,8.22,12.16,7.09,10.14-1.73,20.29-3.48,30.43-5.18,1.23-.2,2.5-.15,4.15-.24,.47,2.7,.89,5.14,1.4,8.06-4.7,.83-8.92,1.6-13.17,2.33-4.09,.7-8.18,1.37-12.69,2.12m3.14,26.96c6.32-.73,11.82-1.36,17.68-2.03-.42-3.67-.79-6.92-1.23-10.82-5.89,.63-11.47,1.23-17.51,1.88,.38,3.86,.69,7.14,1.06,10.97"/><path class="cls-6" d="M636.75,1095.22c-2.89,.46-5.2,.83-8.08,1.29-2.32-15.57-4.58-30.73-6.9-46.28,4.44-.67,8.51-1.28,12.91-1.95,3.4,9.04,6.71,17.85,10.02,26.66,.35-.02,.69-.04,1.03-.06,.62-9.4,1.25-18.82,1.89-28.48,4.23-.64,8.17-1.24,12.85-1.95,2.3,15.31,4.56,30.47,6.92,46.23-2.73,.4-5.14,.75-8.1,1.19-1.89-12.74-3.71-25.02-5.53-37.31-.25,.02-.51,.04-.76,.06-.79,12.74-1.59,25.48-2.39,38.43-1.62,.32-3.14,.62-5.13,1.02-4.44-11.89-8.84-23.67-13.25-35.45-.3,.09-.61,.17-.92,.25,1.78,11.88,3.55,23.76,5.44,36.35"/><path class="cls-6" d="M859.38,992.93c4.32,5.33,8.45,10.42,12.85,15.84-2.15,1.75-4.09,3.32-6.44,5.23-9.84-12.04-19.57-23.94-29.79-36.43,5.56-4.26,10.68-8.92,16.48-12.45,6.91-4.2,16.81,2.61,16.93,11.13,.02,1.23-.19,2.46-.3,3.74,10.67-.56,12.16,11.34,20.79,14.32-2.71,2.23-5.03,4.13-7.82,6.42-2.35-2.49-4.68-4.81-6.86-7.3-6.61-7.57-7.99-7.68-15.84-.51m-3.43-4.15c2.4-3.89,5.2-6.77,5.77-10.04,.31-1.77-3.16-5.95-4.96-5.97-3.32-.05-6.67,2.18-10.75,3.74,3.54,4.37,6.12,7.55,9.94,12.27"/><path class="cls-6" d="M79.9,634.01c-6.95-4.18-12.77,.83-19.23,.54-.59-2.35-1.22-4.77-1.96-7.69,15.2-3.57,30.16-7.11,45.71-10.77,.59,2.85,1.11,5.39,1.68,8.18-6.01,1.51-11.55,2.9-17.09,4.29,0,.27,.03,.55,.04,.82,4.13,1.13,8.19,2.64,12.4,3.3,6.23,.98,9.35,4.15,8.9,11.29-5.7-1.87-11.42-3.56-17-5.63-2.9-1.08-4.98-.66-7.39,1.32-6.45,5.31-13.15,10.32-19.77,15.46-3.89-7.36-3.73-8.08,2.61-12.81,3.59-2.68,7.18-5.37,11.11-8.3"/><path class="cls-6" d="M101.04,789.35c-1.43-3.14-2.61-5.71-3.83-8.41,3.26-2.44,6.33-4.71,9.61-7.16-1.39-3.05-2.69-5.93-4.1-9.04-3.96,.88-7.67,1.7-11.73,2.6-1.19-2.58-2.3-5-3.61-7.87,15.72-3.34,31.03-6.6,46.91-9.98,1.33,2.81,2.91,5.57,3.87,8.53,.34,1.05-.42,3.09-1.36,3.82-11.63,9.09-23.39,18.03-35.76,27.51m25.55-29.45c-.13-.37-.27-.75-.4-1.12-5.43,1.39-10.85,2.79-16.62,4.26,1.31,2.61,2.27,4.51,3.33,6.63,4.88-3.48,9.28-6.63,13.68-9.77"/><path class="cls-6" d="M82.32,718.7c.38,2.98,.99,5.97,1.1,8.96,.15,4.02,2.82,5.01,8.65,2.67-.88-.81-1.63-1.46-2.34-2.16-4.22-4.11-4.46-10.04,.63-12.73,7.29-3.85,15.18-6.72,23.07-9.24,3.94-1.26,8.32,1.3,8.29,5.26-.04,5.25,3.4,8.74,4.66,13.8-2.92,1.25-5.78,2.56-8.69,3.71-8.36,3.32-16.73,6.64-25.12,9.88-4.08,1.58-8.06,1.47-11.02-2.14-3.36-4.08-5.65-8.74-4.11-14.21,.43-1.52,2-2.7,3.03-4.05,.62,.08,1.23,.16,1.85,.24m16.38,9.44c5.78-2.56,11.36-4.84,16.73-7.55,.9-.45,1.56-2.94,1.14-4.02-.41-1.03-2.68-2.31-3.6-1.99-5.7,1.96-11.3,4.22-16.79,6.7-.81,.37-1.49,2.63-1.12,3.59,.45,1.18,2.06,1.93,3.64,3.26"/><path class="cls-6" d="M150.52,782.6c-3.99,2.2-7.63,4.18-11.77,6.45,1.34,.84,2.38,1.34,3.24,2.04,4.14,3.3,4.83,8.67,.96,12.21-6.62,6.04-14.36,10.32-23.22,12.16-4.17,.86-8.13-1.61-8.68-5.73-.43-3.27-.82-6.08-3.61-8.24-.89-.69-1.15-2.21-1.95-3.87,13.55-7.27,26.97-14.44,41.01-21.97,1.32,2.29,2.6,4.5,4.01,6.97m-17.47,9.13c-5.58,3.28-11.09,6.39-16.4,9.81-.73,.46-1.01,2.93-.44,3.73,.72,1.04,2.91,2.19,3.76,1.79,5.47-2.58,10.8-5.46,16-8.54,.79-.47,1.19-2.68,.82-3.73-.37-1.05-1.95-1.67-3.74-3.05"/><path class="cls-6" d="M133.78,848.84c-.84-3.05-1.39-5.48-2.22-7.82-.24-.66-1.23-1.12-1.95-1.52-6.03-3.4-7.38-9.45-2.04-13.71,5.94-4.75,12.58-8.93,19.48-12.08,6.78-3.09,11.62,1.35,11.73,10.18,3.89-2.29,7.53-4.42,11.43-6.72,1.33,2.14,2.59,4.15,4.21,6.77-13.34,8.16-26.52,16.24-40.65,24.89m19.92-23.8c-.74-3.72-2.86-4.58-5.43-3.18-4.65,2.53-9.21,5.25-13.5,8.32-1.16,.83-1.2,3.2-1.76,4.87,1.84,.44,4.14,1.8,5.4,1.15,4.69-2.42,9.07-5.43,13.45-8.39,.94-.64,1.37-2.03,1.84-2.77"/><path class="cls-6" d="M718.98,1043.85c-1.18-4.42-2.22-8.28-3.42-12.77,2.45-.7,4.8-1.37,7.66-2.19,4.27,14.97,8.47,29.73,12.93,45.32-3.02,.45-5.64,.85-9.51,1.43-4.61,5.95-11.63,5.6-15.14-2.74-2.47-5.86-4.32-12.14-5.35-18.4-1.49-9.16,2.93-12.76,12.85-10.66m7.27,23.89c-1.9-5.82-3.34-11.05-5.39-16.05-.52-1.27-2.91-1.77-4.44-2.63-.76,1.56-2.41,3.31-2.13,4.66,1.05,5.14,2.51,10.23,4.32,15.16,.48,1.29,2.87,2.78,4.18,2.61,1.27-.17,2.27-2.36,3.45-3.75"/><path class="cls-6" d="M1039.44,774.65c.87-2.32,1.76-4.67,2.62-6.97,11.47,2.13,15.92,10.27,11.34,20.14-2.5,5.35-6.7,8.67-12.29,7.09-9.95-2.82-19.86-6.3-29.15-10.83-6.42-3.12-6.8-10.96-2.47-18.32,3.6-6.12,9.49-7.41,17.51-3.56-.74,2.18-1.51,4.4-2.37,6.92-1.82-.25-3.62-.99-5.15-.6-1.79,.46-4.19,1.55-4.75,2.97-.54,1.4,.43,4.74,1.57,5.22,8.7,3.62,17.57,6.93,26.52,9.86,1.11,.36,3.79-1.71,4.47-3.21,.56-1.23-.3-3.81-1.42-4.91-1.64-1.62-4.06-2.47-6.44-3.8"/><path class="cls-6" d="M985.22,817.05c1.47-2.58,2.65-4.63,3.96-6.95,4.1,2.25,7.86,4.3,12.16,6.66-.14-1.77-.37-2.96-.3-4.15,.4-6.19,5.74-9.71,11.22-6.94,8.43,4.27,16.62,9.05,25.28,13.82-1.3,2.32-2.44,4.34-3.78,6.75-5.92-3.25-11.53-6.34-17.13-9.41-1.55-.85-3.02-2.16-4.66-2.43-1.71-.28-3.57,.45-5.38,.74,.61,1.8,.66,4.41,1.91,5.24,5.08,3.36,10.52,6.18,15.82,9.19,1.8,1.02,3.59,2.03,5.82,3.28-1.33,2.36-2.49,4.39-3.9,6.92-13.66-7.58-27.09-15.01-41.01-22.73"/><path class="cls-6" d="M227.06,960.71c-1.61-1.7-3.25-3.42-5.52-5.82,5.49-5.22,11.15-10.46,16.64-15.88,1.71-1.69,4.43-3.64,1.54-6.4-2.56-2.45-4.8-.65-6.68,1.21-5.48,5.43-10.88,10.95-16.77,16.89-1.69-2.04-3.2-3.86-4.58-5.52,10.84-10.52,21.86-21.21,32.87-31.91-.28-.5-.56-1.02-.84-1.53,1.62,1.88,3.24,3.75,5.76,6.67-3.07,2.24-6.58,4.79-11,8.02,2.96,.88,4.01,1.14,5.02,1.5,6.47,2.31,8.16,8.28,3.41,13.25-6.35,6.6-13.05,12.87-19.85,19.53"/><path class="cls-6" d="M220.5,246.27c-6.59-6.06-12.72-11.69-19.22-17.68,1.39-1.67,2.37-3.41,3.85-4.42,.95-.65,3.16-.81,3.91-.16,5.95,5.17,11.84,10.43,17.44,15.98,4.14,4.11,4.09,7.9,.17,12.34-5.85,6.64-11.87,13.14-17.86,19.65-7.28,7.94-11.54,7.75-18.69-.75,3.11-6.54,4.23-6.89,9.99-2.68,6.63-7.24,13.32-14.54,20.4-22.28"/><path class="cls-6" d="M957.21,897.04c-1.6,2.01-2.97,3.75-4.35,5.49-5.63-4-6.59-7.75-3.56-13.25,5.33-9.69,10.64-10.81,19.3-4.07,3.05,2.38,6.07,4.79,9.14,7.13,2.93,2.24,5.92,4.39,9.43,7-1.88,1.88-3.89,3.88-5.91,5.89-1.63,6.86-5.12,10.91-10.56,10.3-6.78-.76-11.54-7.32-10.29-14.31,.42-2.38,1.47-4.71,1.47-7.06-.01-1.81-.95-3.81-2.07-5.28-.33-.43-3.65,.36-3.88,1.12-.53,1.68,0,3.7,.2,5.58,.05,.41,.55,.77,1.08,1.47m10.57-2.79c-1.46,5.06-1.98,8.96,2.03,11.66,1.14,.76,4.01,.9,4.54,.19,.9-1.21,1.33-3.89,.57-4.96-1.76-2.45-4.35-4.29-7.14-6.89"/><path class="cls-6" d="M202.14,936.52c-1.38-2.33-2.89-4.86-4.85-8.16-5.5-1.15-9.2-5.31-8.08-10.24,1.39-6.1,8.46-10.42,14.52-8.68,2.61,.76,5.01,2.34,7.64,2.86,1.93,.4,4.16-.05,6.06-.7,.41-.14,.41-3.78-.15-4.01-1.78-.74-3.91-.67-5.92-.85-.44-.03-.9,.18-1.6,.34-1.45-1.6-2.92-3.23-4.39-4.85,4.79-4.85,8.78-5.16,13.63-1.26,8.56,6.87,8.73,12.45,.65,19.71-5.61,5.04-11.19,10.12-17.51,15.83m8.11-17.81c-.14-.7-.29-1.39-.43-2.09-3.3,.26-6.77,.04-9.84,1.03-1.14,.37-1.36,3.56-1.99,5.47,1.88,.31,4.12,1.41,5.55,.75,2.5-1.15,4.5-3.38,6.71-5.16"/><path class="cls-6" d="M904.13,959.41c-4.08,3.72-7.76,7.09-11.74,10.72,2.91,2.95,4.82,8.08,9.74,6,4.45-1.88,.84-5.38-.43-8.42,1.64-1.48,3.26-2.96,4.86-4.43,5.63,4.51,6.6,9.14,3.11,14.14-4.7,6.74-11.16,9.08-16.36,4.73-5.47-4.58-10.33-10.1-14.6-15.83-3.09-4.13-1.39-9,3.17-13.22,4.48-4.15,9.09-4.86,13.56-2.02,1.08,.69,2.11,1.49,3.01,2.39,1.83,1.81,3.54,3.7,5.66,5.94m-9.56,1.19c-2.93-2.04-4.82-6.51-8.58-2.61-3.28,3.39,.34,5.49,2.51,8.13,1.97-1.79,3.7-3.36,6.08-5.52"/><path class="cls-6" d="M699.3,1066.89c-5.46,1.27-10.41,2.44-16.01,3.74,1.71,3.9,.49,9.49,6,9.95,4.4,.36,3.45-4,3.43-7.37,2.22-.52,4.49-1.06,6.74-1.59,2.51,7.24,.84,11.61-5.14,14.04-7.66,3.12-13.87,1.62-16.21-4.97-2.25-6.29-3.69-12.98-4.54-19.6-.72-5.57,3.06-9.09,9.68-10.66,6.03-1.42,10.6,.42,12.8,5.67,1.4,3.33,2.13,6.96,3.25,10.78m-8.44-3.85c-1.78-2.58-2.87-4.73-4.53-6.3-.55-.51-3.45,.2-3.7,.9-.74,2.13-.69,4.51-1.04,7.55,3.52-.81,5.78-1.34,9.27-2.15"/><path class="cls-6" d="M407.33,1044.39c2.61-8.45,6.51-10.48,14.03-8.46,8.31,2.23,10.89,5.66,8.97,12.97-2.19,8.36-4.84,16.61-7.48,25.56-2.59-1.33-5.21-2.66-8.63-4.41-5.35,1.88-10.38,.21-12.03-4.82-1.83-5.55,1.61-12.69,7.24-14.45,2.88-.91,6.07-.89,8.93-1.84,1.73-.57,3.42-1.98,4.47-3.47,.37-.52-1.21-3.47-1.96-3.49-1.74-.05-3.48,1.21-5.3,1.55-2.55,.46-5.17,.57-8.25,.88m13.52,10.13c-5.32,.33-9.02,1.34-10.13,5.74-.36,1.42,.54,4.14,1.62,4.64,1.17,.54,3.96-.31,4.72-1.45,1.62-2.41,2.37-5.39,3.79-8.93"/><path class="cls-6" d="M952.83,915.65c-3.73,4.3-7.07,8.13-10.65,12.26,3.54,2.43,5.86,7.34,10.65,4.46,1.14-.68,.1-4.98,.06-7.63-.57-.08-1.15-.16-1.73-.24,1.54-1.76,3.06-3.5,4.56-5.22,6.54,4.73,7.61,9.22,3.85,14.9-4.51,6.84-10.32,8.91-16.24,4.81-5.23-3.62-10.08-7.97-14.46-12.61-4.08-4.32-3.37-9.12,.98-14.26,4.26-5.03,8.94-6.29,13.98-3.27,3.1,1.87,5.82,4.37,8.99,6.8m-9.06,1.9c-3-1.11-5.18-2.23-7.48-2.56-.69-.1-2.62,2.25-2.4,2.99,.65,2.18,2.1,4.12,3.54,6.73,2.42-2.73,3.97-4.49,6.33-7.17"/><path class="cls-6" d="M787.63,1028.73c-3.08-5.68-2.29-9.84,2.57-13.06,1.86-1.23,3.93-2.2,6.04-2.92,5.52-1.9,8.92-.64,11.57,4.58,2.68,5.28,4.93,10.78,7.45,16.15,1.21,2.6,2.58,5.12,4.25,8.44-2.8,.82-5.5,1.61-9.56,2.8-2.78,4.68-7.64,6.83-12.18,4.15-5.45-3.21-7.24-11.4-3.51-16.83,1.53-2.24,3.76-4.03,5.09-6.37,.89-1.57,1.05-3.75,.87-5.6-.05-.55-2.93-1.63-3.46-1.19-1.38,1.13-3.07,3-3.02,4.53,.15,4.83-4.07,3.53-6.09,5.31m16.91-.57c-3.17,3.82-5.82,6.9-3.78,11.04,.66,1.35,2.76,2,4.21,2.97,.98-1.59,2.89-3.28,2.72-4.73-.34-2.88-1.83-5.64-3.15-9.28"/><path class="cls-6" d="M340.23,1022.5c-4.92-2.67-9.37-5.08-14.29-7.76-1.45,4.01-6.03,7.16-2.12,11.28,.95,.99,4.91-.87,7.49-1.42-.02-.6-.04-1.21-.05-1.81,2.04,1.12,4.07,2.25,6.09,3.36-3.07,7.18-7.37,9.33-13.61,7.03-7.91-2.92-11.11-8.23-8.24-15.18,2.31-5.59,5.31-10.98,8.66-16.03,3.5-5.27,8.78-5.84,14.87-2.49,5.89,3.24,7.87,7.71,5.68,13.57-1.17,3.11-2.83,6.04-4.47,9.43m-11.65-12.75c2.64,1.48,4.68,2.62,7.15,4,1.3-3.28,4.48-6.27,.25-8.71-4.17-2.42-5.31,1.68-7.4,4.71"/><path class="cls-6" d="M1070.49,646.49c-.73,5.61-1.35,10.5-1.98,15.35,4.99,2.51,10.3,2.26,11.24-.68,1.53-4.73-2.76-4.9-5.75-6.42,.37-2.16,.74-4.32,1.1-6.42,6.87-.2,10.68,2.82,11.27,8.68,.78,7.65-2.81,14.07-9.07,14.03-7.3-.05-14.7-1.15-21.82-2.82-5.14-1.2-7.03-6.17-6.07-12.14,1.06-6.62,3.97-9.94,9.59-10.19,3.62-.17,7.29,.35,11.49,.59m-6.68,6.59c-3.03,.78-5.43,1.09-7.48,2.12-.65,.33-.93,3.31-.33,3.79,1.75,1.42,4.02,2.19,6.79,3.56,.39-3.65,.64-5.95,1.02-9.47"/><path class="cls-6" d="M1052.64,734.23c-1.66,5.62-3.05,10.35-4.44,15.04,5.39,3.07,10.12,3.41,11.4,.72,2.17-4.57-2.3-5.1-4.81-7.09,.66-2.07,1.33-4.17,1.99-6.25,7.3,1.02,10.26,4.44,9.67,11.01-.71,8.03-5.33,13.2-12.01,12.02-6.57-1.15-13.09-3.22-19.29-5.72-5.28-2.13-6.68-6.95-4.99-13.04,1.82-6.53,5.29-9.53,11.2-9,3.61,.33,7.16,1.44,11.29,2.31m-10.34,15.07c1.13-3.75,1.81-5.98,2.84-9.41-3.09,.18-5.54,.03-7.77,.64-.69,.19-1.52,3.03-1.02,3.71,1.31,1.74,3.32,2.92,5.94,5.06"/><path class="cls-6" d="M569.1,1097.28c-2.86-.87-5.26-1.66-7.7-2.3-.71-.19-1.64-.17-2.29,.13-5.8,2.69-10.33,2.01-12.74-2.04-2.85-4.8-1.38-12.61,3.21-15.52,2.41-1.53,5.43-2.13,7.77-3.73,1.85-1.28,3.08-3.45,4.59-5.23-1.13-.94-2.65-2.9-3.31-2.64-2.04,.78-3.75,2.41-5.59,3.71,.22,.45,.44,.91,.66,1.37-2.33-.11-4.64-.22-6.92-.33-.27-6.49,2.15-9.68,7.86-10.31,2.52-.29,5.14-.15,7.67,.2,5.03,.7,7.38,3.26,7.39,8.42,.03,5.62-.43,11.24-.58,16.86-.09,3.35-.02,6.72-.02,11.41m-7.24-18.29l-1.62-1.26c-2.25,2.38-4.95,4.5-6.52,7.26-.63,1.1,.75,4.57,2.1,5.29,2.63,1.39,4.5-.71,5.06-3.32,.55-2.61,.67-5.31,.98-7.97"/><path class="cls-6" d="M476.14,1075.5c1.28-5.44,2.16-11.02,3.94-16.29,1.99-5.85,5.86-7.48,12.78-6.43,6.28,.94,9.93,3.95,9.7,9.92-.24,6.5-1.36,13.09-3.07,19.36-1.73,6.33-6.11,8.33-12.76,7.26-6.93-1.12-9.86-4.41-10.05-11.27-.02-.81,0-1.61,0-2.42-.18-.04-.36-.09-.54-.14m7.91,3.53c.97,1.04,2.27,3.56,3.82,3.73,1.34,.15,3.86-2.16,4.29-3.79,1.29-4.95,2.15-10.09,2.46-15.19,.1-1.6-2.05-3.33-3.16-5-1.43,1.24-3.7,2.24-4.12,3.74-1.37,4.93-2.07,10.06-3.28,16.51"/><path class="cls-6" d="M169.95,838.61c1.68,2.4,2.94,4.2,4.44,6.35-5.31,3.69-10.43,7.25-15.54,10.81-1.32,.92-3.01,1.59-3.85,2.83-1.17,1.73-2.85,4.39-2.26,5.78,1.28,3,4.03,1.6,6.1,.24,4.01-2.65,7.96-5.43,11.92-8.16,2.5-1.72,4.99-3.43,7.82-5.39,1.56,2.18,2.93,4.08,4.69,6.52-9.54,6.66-18.96,13.22-29.13,20.28-1.42-2.71-2.7-5.16-4.58-8.75-2.43-.52-5.6-2.69-6.25-7.3-.64-4.48,2.65-6.56,5.7-8.69,6.83-4.76,13.67-9.48,20.94-14.52"/><path class="cls-6" d="M81.17,705.69c-.94-2.76-1.65-4.85-2.48-7.3,6.96-2.37,13.61-4.61,20.27-6.89,1.36-.47,3-.69,3.96-1.61,1.09-1.03,2.41-3.01,2.06-4.04-.38-1.12-2.56-2.16-3.99-2.24-1.84-.1-3.75,.7-5.57,1.3-6.24,2.06-12.45,4.19-18.97,6.4-.88-2.41-1.69-4.61-2.76-7.56,11.16-3.75,22.11-7.45,33.83-11.4,.57,3.41,1.02,6.07,1.63,9.68,2.42,1.15,4.6,4.17,4.22,8.43-.37,4.19-3.71,5.64-7.2,6.8-8.2,2.73-16.39,5.52-24.99,8.41"/><path class="cls-6" d="M283.48,965.13c2.51,2.41,4.46,4.27,7.09,6.8,2.77-.5,6.28,.65,8.53,4.36,2.25,3.69,.22,6.78-1.81,9.76-4.86,7.17-9.75,14.31-14.75,21.64-2.35-1.6-4.3-2.92-6.42-4.37,4.5-6.6,8.81-12.8,12.97-19.1,1.42-2.16,3.95-4.72,.44-7.01-3.33-2.16-4.98,.93-6.49,3.05-4.38,6.12-8.57,12.38-13.04,18.87-2.32-1.57-4.27-2.88-6.67-4.51,6.64-9.71,13.12-19.2,20.14-29.5"/><path class="cls-6" d="M373.16,1056.57c-2.57-1.12-4.75-2.08-7.36-3.2,4.6-10.75,9.13-21.29,13.95-32.54,2.68,1.59,5.02,2.97,6.74,3.99,3.95,1.39,8.11,1.83,10.8,4.05,3.28,2.71,1.36,6.83-.12,10.26-3.28,7.66-6.59,15.28-10.09,23.39-2.36-.99-4.48-1.89-7.11-2.99,2.65-6.17,5.14-12.01,7.64-17.86,.63-1.48,1.7-2.93,1.76-4.43,.08-1.95-.64-3.91-1.02-5.87-1.85,1.03-4.37,1.62-5.4,3.19-1.98,3.04-3.13,6.65-4.61,10.02-1.66,3.82-3.3,7.65-5.18,11.99"/><path class="cls-6" d="M1076.94,705.86c-.69,2.73-1.24,4.85-1.91,7.48-7.29-1.79-14.22-3.62-21.22-5.12-2.7-.57-6.55-2.73-7.73,1.67-1.17,4.34,3.08,4.63,5.83,5.39,6.93,1.9,13.93,3.48,21.34,5.3-.62,2.66-1.15,4.93-1.81,7.81-11.45-2.8-22.59-5.52-34.94-8.53,1.59-2.74,2.95-4.94,4.1-7.24,.3-.6,.06-1.57-.16-2.31-2.23-7.49,1.79-12.51,9.3-10.98,8.94,1.82,17.76,4.24,27.18,6.54"/><path class="cls-6" d="M517.97,1092.59c-2.65-.2-4.97-.38-7.92-.6,1.31-11.82,2.57-23.21,3.9-35.36,3.07,.8,5.67,1.47,8.26,2.15-.08,.38-.15,.77-.23,1.16,1.28-.64,2.51-1.44,3.84-1.89,5.19-1.7,10.03,1.51,10.21,6.85,.08,2.56-.18,5.14-.47,7.69-.8,7.15-1.69,14.28-2.59,21.9-2.74-.37-5.02-.67-7.57-1.02,.79-7.17,1.51-13.84,2.24-20.52,.09-.8,.33-1.59,.34-2.39,.03-2.48,.95-5.63-2.72-6.2-3.97-.61-4.18,2.85-4.63,5.42-.64,3.63-.85,7.34-1.27,11.01-.43,3.79-.9,7.59-1.41,11.81"/><path class="cls-6" d="M914.41,956.28c1.83-1.52,3.42-2.83,5.33-4.41,.36,.24,1.2,1.21,2.17,1.35,1.55,.23,3.43,.37,4.69-.33,.87-.47,1.61-3.19,1.19-3.58-1.25-1.14-3.12-2.27-4.71-2.22-3.34,.11-6.65,1.18-10,1.49-5.95,.54-10.5-2.19-11.91-6.84-1.36-4.47,1.59-10.26,6.74-13.25,4.27-2.48,7.95-1.59,12.54,3.25-1.6,1.29-3.2,2.58-5.05,4.06-.41-.22-1.24-1-2.08-1.03-1.45-.04-3.14,.03-4.28,.76-.77,.5-1.4,2.7-.96,3.26,.84,1.08,2.51,2.17,3.79,2.13,3.02-.09,6.03-.82,9.04-1.33,6.89-1.19,11.8,.91,13.73,5.91,1.77,4.51-.8,10.26-6.22,13.9-4.64,3.13-8.55,2.36-14.01-3.13"/><path class="cls-6" d="M1008.76,842.36c9.67,5.18,11.3,11.83,5.1,19.18-2.9,3.45-6.62,5.05-10.7,3-5.7-2.86-11.42-5.92-16.47-9.75-6.38-4.83-6.63-9.95-1.92-16.27,4.08-5.49,8.72-5.96,16.07-1.24-1.21,1.94-2.44,3.88-3.59,5.71-.64,0-.99,.1-1.26,0-2.32-.91-4.96-2.94-6.73,.33-1.68,3.1,1.09,4.61,3.23,6.02,3.62,2.38,7.17,4.95,11.05,6.82,1.76,.85,4.23,.19,6.39,.21-.8-2-1.47-4.04-2.44-5.95-.4-.78-1.41-1.24-2.44-2.09,1.21-1.96,2.38-3.84,3.69-5.97"/><path class="cls-6" d="M778.84,1034.21c-2.27,.9-4.18,1.66-6.28,2.49-.51-.58-.83-1.13-1.3-1.46-1.65-1.15-3.61-3.39-4.96-3.08-3.17,.73-2.41,3.6-1.53,5.96,1.63,4.36,3.22,8.74,5,13.05,.92,2.21,2.19,5.08,5.12,3.45,1.21-.68,1.33-3.62,1.6-5.59,.14-1-.48-2.11-.82-3.41,2.2-.87,4.24-1.67,6.24-2.46,4.37,6.99,3.44,13.05-2.31,16.39-7.17,4.18-13.11,2.73-16.81-4.73-2.42-4.84-4.35-10.03-5.72-15.27-2.02-7.74,.95-11.99,8.96-14.11,6.33-1.68,10.2,.9,12.8,8.78"/><path class="cls-6" d="M303.4,1020.1c-8.95-3.19-9.95-5.88-5.5-13.27,2.66-4.4,5.43-8.72,8.03-13.16,1-1.72,3.39-3.35,.7-5.8-.35-.32,1.16-3.82,1.71-3.79,5.32,.27,5.84-4.73,8.54-7.75,2.17,1.33,4.16,2.56,6.63,4.07-1.13,1.92-2.39,3.56-3.08,5.41-.45,1.17,.29,2.78-.15,3.96-.67,1.81-1.67,3.6-2.95,5.03-.91,1.02-2.98,1.08-3.72,2.14-2.66,3.8-5.18,7.75-7.31,11.87-.87,1.69-.43,3.99-.91,5.94-.45,1.85-1.31,3.59-1.98,5.34"/><path class="cls-6" d="M1035.8,312.6c6.19,6.11,6.18,6.29,.09,10.68-10.05,7.23-20.15,14.37-30.1,21.73-2.75,2.04-4.36,2.3-6.53-.87-1.97-2.86-1.58-4.27,1.12-6.17,11.82-8.32,23.52-16.82,35.42-25.37"/><path class="cls-6" d="M174.85,316.66c-8.17-5.43-16.46-10.92-24.72-16.41-3.75-2.49-7.41-5.15-11.29-7.42-3.02-1.78-3.5-3.34-1.51-6.47,2.2-3.42,3.96-2.56,6.57-.78,10.25,6.94,20.6,13.73,30.91,20.58,6.01,3.99,6.04,4.73,.04,10.49"/><path class="cls-6" d="M780.02,146.69c-5.49-.22-7.29-3.06-5.45-7.33,5.14-11.94,10.42-23.83,15.4-35.83,1.4-3.36,2.93-3.81,6.18-2.43,3.29,1.42,3.25,3.03,1.99,5.89-5.42,12.18-10.61,24.44-15.97,36.65-.55,1.27-1.62,2.32-2.15,3.04"/><path class="cls-6" d="M1035.66,684.4c.45-2.33,.89-4.62,1.38-7.21,2.33,.36,4.33,.86,6.36,.91,1.17,.03,2.36-.99,3.53-.98,1.92,0,3.93,.2,5.71,.86,1.2,.43,1.92,2.35,3.09,2.63,4.81,1.19,9.7,2.19,14.61,2.85,1.6,.22,3.33-.94,5.04-1.2,1.93-.3,3.88-.29,5.77-.41,.57,9.21-2.09,11.65-10.14,10.04-5.19-1.04-10.34-2.26-15.57-3-1.69-.24-3.53,.93-5.34,1.18-1.51,.2-4.32,.31-4.4-.05-1.3-5.48-6.77-3.36-10.04-5.63"/><path class="cls-6" d="M624.4,77.2c0,6.76-.1,13.53,.04,20.28,.07,3.38-1.28,4.43-4.61,4.37-3.52-.07-4.29-1.62-4.21-4.79,.32-13.04,.5-26.07,.61-39.11,.03-3.11,.35-5.17,4.4-5.1,3.83,.06,4.51,1.71,4.4,5.03-.2,6.43-.06,12.88-.06,19.31h-.57Z"/><path class="cls-6" d="M446.5,1033.99c2.13,.52,4.41,1.07,7.05,1.72-.44,2.03-1.11,3.84-1.15,5.67-.03,1.42,1.12,2.88,1.01,4.26-.16,1.9-.8,3.83-1.64,5.55-.55,1.15-2.32,1.8-2.66,2.93-1.3,4.3-2.51,8.66-3.19,13.08-.35,2.22,.62,4.6,.74,6.92,.09,1.8-.22,3.61-.35,5.37-9.22-.07-11.2-2.57-9.18-10.85,1.1-4.52,2.31-9.01,3.27-13.56,.53-2.51,2.92-5.25-.78-7.59-.49-.31,.34-4.21,.78-4.26,5.78-.6,3.33-6.39,6.1-9.23"/><path class="cls-6" d="M253.25,987.13c-2.36-1.76-4.39-3.27-6.93-5.16,9.41-12.51,18.63-24.76,28.17-37.46,2.26,1.66,4.37,3.22,6.97,5.13-9.4,12.5-18.63,24.75-28.21,37.49"/><rect class="cls-6" x="580.76" y="1050.35" width="7.51" height="46.53"/><path class="cls-6" d="M179.08,909.44c-1.8-2.17-3.22-3.87-5.11-6.16,12.06-9.9,24-19.68,36.27-29.75,1.77,2.17,3.25,3.98,5.08,6.21-12.03,9.85-23.9,19.57-36.24,29.69"/><path class="cls-6" d="M808.61,994.7c2.68-1.35,4.79-2.4,7.18-3.58,7.06,13.95,13.98,27.67,21.11,41.77-2.46,1.27-4.55,2.35-7.1,3.66-7.02-13.86-13.95-27.55-21.19-41.85"/><path class="cls-6" d="M166.5,893.8c-1.77-2.34-3.19-4.21-4.85-6.4,12.47-9.53,24.65-18.85,37.2-28.45,1.7,2.22,3.12,4.07,4.86,6.35-12.36,9.46-24.54,18.8-37.21,28.5"/><path class="cls-6" d="M993.89,889.69c-9.78-6.89-19.08-13.42-28.72-20.21,1.48-2.19,2.71-4.01,4.08-6.02,1.26,.56,2.4,1.06,3.45,1.53v-9.33c3.27,2.12,5.75,3.71,8.16,5.27-2.6,7.47-2.48,7.81,3.94,12.34,4.46,3.14,8.92,6.29,13.74,9.68-1.55,2.23-2.95,4.27-4.67,6.75"/><path class="cls-6" d="M1088.86,629.76c-.18,2.63-.33,4.83-.55,7.97-11.59-1.1-23.01-2.17-35-3.3,1.28-3.07-2.21-7.67,4.02-7.85-1.37-2.38-2.67-4.63-4.66-8.08,4.3,.33,7.22,.54,10.06,.76,1.46,7.68,1.67,7.86,9.17,8.66,5.44,.58,10.87,1.18,16.96,1.84"/><path class="cls-6" d="M363.42,1017.33c2.69-.49,5.44-.98,9.5-1.72-1.8,3.83-3.03,6.48-4.25,9.08q-8.02-1.3-11.74,6.29c-2.21,4.46-4.43,8.92-6.66,13.37-.14,.27-.43,.47-.97,1.06-2.12-1-4.36-2.07-6.98-3.3,5.17-10.58,10.16-20.76,15.41-31.48,2.22,1.01,4.19,1.92,6.47,2.96-.29,1.36-.56,2.65-.79,3.73"/><path class="cls-6" d="M101.76,654.66c.8,2.54,1.51,4.77,2.4,7.61-11.23,3.24-22.25,6.43-33.7,9.74-.79-2.46-1.55-4.8-2.46-7.63,11.41-3.28,22.41-6.45,33.76-9.72"/><path class="cls-6" d="M463.25,1047.84c2.94,.68,5.22,1.21,7.8,1.8-2.48,11.47-4.88,22.58-7.38,34.13-2.56-.47-4.85-.89-7.82-1.43,2.46-11.47,4.86-22.68,7.4-34.5"/><path class="cls-6" d="M736.51,1036.92c2.53-.88,4.73-1.65,7.52-2.62,3.72,11.07,7.38,21.91,11.19,33.25-2.5,.89-4.81,1.71-7.56,2.68-3.72-11.13-7.37-22.01-11.15-33.31"/><path class="cls-6" d="M287.97,129.14c-.38-.95-.59-2.01-1.16-2.83-2.63-3.83-.51-5.96,2.75-7.51,.74-.35,2.23-.14,2.75,.4,.41,.43,0,1.81-.28,2.7-.3,1.03-.85,1.99-1.29,2.97,1.18,.12,2.39,.13,3.53,.39,.94,.21,2.03,.52,2.62,1.18,.26,.29-.28,1.82-.87,2.29-1.49,1.19-3.16,2.21-4.86,3.09-.91,.47-2.32,1.03-2.96,.64-.75-.43-.92-1.87-1.33-2.87,.36-.15,.73-.3,1.09-.45"/><path class="cls-6" d="M1080.59,376.82c-2.84,2.05-4.54,4.22-6.07,4.1-1.54-.12-4.01-2.51-4.01-3.92,0-1.44,2.37-3.87,3.91-4.05,1.51-.18,3.28,1.95,6.17,3.87"/><path class="cls-6" d="M134.8,440.37c-2.88,2.08-4.61,4.28-6.08,4.11-1.59-.18-2.92-2.57-4.37-3.99,1.43-1.4,2.72-3.73,4.3-3.93,1.48-.19,3.23,1.89,6.15,3.81"/><path class="cls-6" d="M833.37,180.47c1.89,2.93,3.95,4.73,3.75,6.22-.21,1.55-2.69,3.97-4.02,3.88-1.5-.1-3.82-2.52-3.95-4.07-.12-1.5,2.11-3.18,4.22-6.03"/><path class="cls-6" d="M431.3,147.95c-2.79,2.01-4.5,4.18-5.97,4.03-1.58-.16-4.04-2.51-4.05-3.91,0-1.45,2.36-3.91,3.89-4.09,1.5-.17,3.26,2,6.13,3.97"/><path class="cls-6" d="M195.6,231.92c-2.97,1.93-4.81,4.02-6.27,3.79-1.56-.25-2.76-2.7-4.12-4.19,1.48-1.33,2.89-3.59,4.46-3.7,1.5-.1,3.14,2.05,5.93,4.1"/><path class="cls-6" d="M187.61,240.53c-2.93,2.01-4.69,4.14-6.22,3.99-1.49-.15-3.79-2.65-3.79-4.11,0-1.36,2.47-3.69,4-3.82,1.5-.14,3.19,1.98,6.01,3.94"/><path class="cls-6" d="M413.68,157.39c-2-2.94-4.17-4.75-3.95-6.2,.23-1.58,2.69-2.81,4.18-4.2,1.36,1.47,3.66,2.85,3.8,4.43,.14,1.47-2.01,3.15-4.03,5.97"/><path class="cls-6" d="M183.74,228.43c-2.83,2.15-4.47,4.34-5.99,4.26-1.51-.08-3.94-2.38-4.03-3.82-.09-1.35,2.24-3.81,3.74-4.03,1.5-.21,3.3,1.78,6.28,3.59"/><path class="cls-6" d="M125.43,445.58c1.77,2.97,3.74,4.81,3.49,6.29-.24,1.51-2.77,3.77-4.13,3.66-1.46-.13-3.73-2.59-3.78-4.1-.05-1.52,2.22-3.1,4.42-5.85"/><path class="cls-6" d="M106.43,653.33c2.61-.71,4.43-1.21,6.7-1.82,.73,2.56,1.38,4.81,2.19,7.59-2.33,.6-4.4,1.14-6.95,1.81-.68-2.65-1.26-4.91-1.94-7.58"/><path class="cls-6" d="M473.31,1038.07c-.46,2.47-.85,4.56-1.3,6.99-2.71-.57-4.99-1.05-7.7-1.62,.46-2.26,.86-4.22,1.41-6.92,2.42,.49,4.77,.97,7.59,1.55"/><path class="cls-6" d="M139.67,416.65c-1.89-2.9-3.93-4.67-3.75-6.17,.18-1.52,2.64-3.92,3.96-3.84,1.49,.1,3.84,2.46,3.96,3.98,.12,1.5-2.08,3.18-4.17,6.03"/><path class="cls-6" d="M740.27,1023.19c.88,2.56,1.54,4.46,2.33,6.78-2.55,.87-4.84,1.66-7.42,2.54-.8-2.23-1.49-4.12-2.39-6.6,2.42-.88,4.7-1.72,7.48-2.72"/><path class="cls-6" d="M320.21,196.06c-3.01,1.81-4.87,3.8-6.37,3.56-1.54-.25-2.72-2.68-4.07-4.16,1.5-1.34,2.95-3.65,4.51-3.73,1.51-.08,3.13,2.16,5.93,4.33"/></g></svg>